HIERARCHY
ROOT Pelvis
{
	OFFSET 0.000000 0.941512 0.000000
	CHANNELS 6 Xposition Yposition Zposition Zrotation Yrotation Xrotation 
	JOINT Pelvis_L_Hip
	{
		OFFSET 0.000000 0.000000 0.000000
		CHANNELS 3 Zrotation Yrotation Xrotation
		JOINT L_Hip
		{
			OFFSET 0.062321 -0.080322 -0.016990
			CHANNELS 3 Zrotation Yrotation Xrotation
			JOINT L_Knee
			{
				OFFSET 0.093051 -0.381305 -0.029784
				CHANNELS 3 Zrotation Yrotation Xrotation
				JOINT L_Ankle
				{
					OFFSET -0.010371 -0.431000 -0.033614
					CHANNELS 3 Zrotation Yrotation Xrotation
					End Site #name: L_Foot
					{
						OFFSET 0.069299 -0.038670 0.119418
					}
				}
			}
		}
	}
	JOINT Pelvis_R_Hip
	{
		OFFSET 0.000000 0.000000 0.000000
		CHANNELS 3 Zrotation Yrotation Xrotation
		JOINT R_Hip
		{
			OFFSET -0.055334 -0.094904 -0.002373
			CHANNELS 3 Zrotation Yrotation Xrotation
			JOINT R_Knee
			{
				OFFSET -0.064207 -0.384370 -0.019592
				CHANNELS 3 Zrotation Yrotation Xrotation
				JOINT R_Ankle
				{
					OFFSET 0.025418 -0.419734 -0.065953
					CHANNELS 3 Zrotation Yrotation Xrotation
					End Site #name: R_Foot
					{
						OFFSET -0.057233 -0.039888 0.132134
					}
				}
			}
		}
	}
	JOINT Pelvis_Spine1
	{
		OFFSET 0.000000 0.000000 0.000000
		CHANNELS 3 Zrotation Yrotation Xrotation
		JOINT Spine1
		{
			OFFSET -0.005562 0.124093 -0.043360
			CHANNELS 3 Zrotation Yrotation Xrotation
			JOINT Spine2
			{
				OFFSET 0.012244 0.139499 0.029894
				CHANNELS 3 Zrotation Yrotation Xrotation
				JOINT Spine3
				{
					OFFSET -0.002556 0.056561 0.009225
					CHANNELS 3 Zrotation Yrotation Xrotation
					JOINT Spine3_Neck
					{
						OFFSET 0.000000 0.000000 0.000000
						CHANNELS 3 Zrotation Yrotation Xrotation
						JOINT Neck
						{
							OFFSET -0.005205 0.217920 -0.024551
							CHANNELS 3 Zrotation Yrotation Xrotation
							End Site #name: Head
							{
								OFFSET 0.002365 0.091850 0.046637
							}
						}
					}
					JOINT Spine3_L_Collar
					{
						OFFSET 0.000000 0.000000 0.000000
						CHANNELS 3 Zrotation Yrotation Xrotation
						JOINT L_Collar
						{
							OFFSET 0.072225 0.116603 -0.009480
							CHANNELS 3 Zrotation Yrotation Xrotation
							JOINT L_Shoulder
							{
								OFFSET 0.115937 -0.058643 -0.021018
								CHANNELS 3 Zrotation Yrotation Xrotation
								JOINT L_Elbow
								{
									OFFSET 0.021994 -0.254722 -0.024492
									CHANNELS 3 Zrotation Yrotation Xrotation
									End Site #name: L_Wrist
									{
										OFFSET 0.048810 -0.240214 0.103329
									}
								}
							}
						}
					}
					JOINT Spine3_R_Collar
					{
						OFFSET 0.000000 0.000000 0.000000
						CHANNELS 3 Zrotation Yrotation Xrotation
						JOINT R_Collar
						{
							OFFSET -0.073372 0.120704 -0.024611
							CHANNELS 3 Zrotation Yrotation Xrotation
							JOINT R_Shoulder
							{
								OFFSET -0.108089 -0.054969 -0.020504
								CHANNELS 3 Zrotation Yrotation Xrotation
								JOINT R_Elbow
								{
									OFFSET -0.033684 -0.260739 0.009889
									CHANNELS 3 Zrotation Yrotation Xrotation
									End Site #name: R_Wrist
									{
										OFFSET -0.067980 -0.232763 0.118463
									}
								}
							}
						}
					}
				}
			}
		}
	}
}
MOTION
Frames: 14
Frame Time: 0.041667
0.015786 0.940952 -0.029318 -16.435540 3.940950 5.407263 0.000000 0.000000 0.000000 25.885456 -2.623487 -11.171339 6.750368 -0.834896 3.736645 -4.657764 4.372410 10.545041 0.000000 0.000000 0.000000 17.914114 1.256638 -7.428206 -0.963678 0.127035 -0.420362 4.525881 10.156986 3.197687 0.000000 0.000000 0.000000 -13.510749 2.722578 -9.451994 -37.270974 12.530121 16.729997 -0.819053 6.522717 -25.938616 0.000000 0.000000 0.000000 -10.289667 5.998029 32.566168 0.000000 0.000000 0.000000 37.818462 -4.414504 7.130181 -5.044028 0.487879 1.013086 20.084319 8.206148 -12.712193 0.000000 0.000000 0.000000 -83.086922 17.216174 -6.664535 -55.965200 -15.783392 -39.614192 -43.148711 -20.742860 -13.253555 
0.015878 0.940961 -0.027598 -16.419154 3.888448 5.499552 0.000000 0.000000 0.000000 25.844032 -2.619557 -11.028178 6.791092 -0.829451 3.615800 -4.622402 4.405431 10.516946 0.000000 0.000000 0.000000 17.915934 1.257306 -7.435645 -1.011316 0.138348 -0.362624 4.552791 10.264006 3.183131 0.000000 0.000000 0.000000 -13.547245 2.730576 -9.446986 -37.276352 12.585396 16.844245 -0.949562 6.382297 -25.976315 0.000000 0.000000 0.000000 -10.765823 6.438297 32.754017 0.000000 0.000000 0.000000 37.813417 -4.464864 7.040418 -4.992350 0.487902 1.051511 20.303721 8.321294 -12.634217 0.000000 0.000000 0.000000 -83.039000 17.196398 -6.540065 -55.987004 -15.874667 -39.807820 -43.238024 -20.791416 -13.105901 
0.015877 0.941011 -0.025611 -16.377013 3.849119 5.589189 0.000000 0.000000 0.000000 25.757121 -2.616006 -10.857316 6.865756 -0.824237 3.456134 -4.594564 4.449652 10.507578 0.000000 0.000000 0.000000 17.908933 1.261799 -7.454426 -1.075877 0.156047 -0.251711 4.560720 10.334469 3.153815 0.000000 0.000000 0.000000 -13.570803 2.737590 -9.406296 -37.299676 12.630936 16.923736 -1.033248 6.275001 -26.001789 0.000000 0.000000 0.000000 -11.106421 6.760964 32.930094 0.000000 0.000000 0.000000 37.863296 -4.572323 6.915825 -5.010486 0.483395 1.013033 20.361252 8.351006 -12.533948 0.000000 0.000000 0.000000 -83.086678 17.186466 -6.429068 -56.042895 -15.979618 -40.008657 -43.325972 -20.853823 -13.068197 
0.015761 0.940949 -0.023595 -16.322962 3.840117 5.665051 0.000000 0.000000 0.000000 25.650633 -2.614527 -10.709134 6.962960 -0.822511 3.313481 -4.577655 4.494038 10.513340 0.000000 0.000000 0.000000 17.874198 1.271160 -7.487418 -1.115893 0.174160 -0.079885 4.573034 10.447514 3.108514 0.000000 0.000000 0.000000 -13.539169 2.739159 -9.285890 -37.344832 12.705447 17.064954 -1.068671 6.227216 -26.030993 0.000000 0.000000 0.000000 -11.243948 6.909322 33.251208 0.000000 0.000000 0.000000 37.865316 -4.684742 6.784096 -5.054720 0.468421 0.881625 20.409936 8.375818 -12.528097 0.000000 0.000000 0.000000 -83.212724 17.174547 -6.317547 -56.184195 -16.058908 -40.064705 -43.621940 -21.000369 -12.925873 
0.015327 0.940948 -0.021659 -16.242454 3.895580 5.731154 0.000000 0.000000 0.000000 25.539172 -2.618087 -10.606040 7.054626 -0.819054 3.161281 -4.591025 4.527288 10.555909 0.000000 0.000000 0.000000 17.833893 1.268258 -7.485635 -1.145795 0.185703 0.017574 4.545118 10.452119 3.051407 0.000000 0.000000 0.000000 -13.403314 2.727458 -9.103489 -37.375073 12.780151 17.239044 -1.073433 6.206772 -26.049448 0.000000 0.000000 0.000000 -11.286872 6.969485 33.605441 0.000000 0.000000 0.000000 37.906621 -4.892870 6.578145 -5.236071 0.480434 0.871037 20.398890 8.371057 -12.565469 0.000000 0.000000 0.000000 -83.413811 17.235813 -6.412519 -56.266647 -16.087956 -40.054414 -43.833400 -21.102307 -12.839748 
0.015101 0.940955 -0.019870 -16.088932 3.991479 5.911112 0.000000 0.000000 0.000000 25.321663 -2.628069 -10.712603 7.149355 -0.822824 3.091792 -4.588970 4.642217 10.629232 0.000000 0.000000 0.000000 17.715460 1.297044 -7.588283 -1.183110 0.194999 0.064275 4.473165 10.377192 2.955123 0.000000 0.000000 0.000000 -13.114398 2.695839 -8.968823 -37.407314 12.828309 17.354746 -1.076683 6.198788 -26.039831 0.000000 0.000000 0.000000 -11.183816 6.899841 34.003945 0.000000 0.000000 0.000000 37.730785 -4.876656 6.541351 -5.346217 0.472840 0.759093 20.343130 8.341810 -12.549020 0.000000 0.000000 0.000000 -83.497576 17.271785 -6.502716 -56.264455 -16.141083 -40.213171 -43.989590 -21.174138 -12.742045 
0.015368 0.940892 -0.018476 -15.797524 4.288428 6.130747 0.000000 0.000000 0.000000 24.959424 -2.657274 -11.086628 7.186088 -0.827752 3.112218 -4.605671 4.706338 10.680283 0.000000 0.000000 0.000000 17.415010 1.369816 -7.832106 -1.188439 0.208278 0.239778 4.262876 10.053535 2.738937 0.000000 0.000000 0.000000 -12.697969 2.650464 -8.577188 -37.511159 12.779686 17.231187 -0.944442 6.345733 -26.002834 0.000000 0.000000 0.000000 -10.958734 6.682459 34.526340 0.000000 0.000000 0.000000 37.503916 -4.882470 6.520876 -5.659159 0.451010 0.432733 20.121388 8.229657 -12.258820 0.000000 0.000000 0.000000 -83.665473 17.290549 -6.646771 -55.729704 -15.873943 -40.114605 -44.218726 -21.311500 -13.074570 
0.016371 0.941052 -0.017318 -15.364892 4.904691 6.295899 0.000000 0.000000 0.000000 24.403834 -2.712737 -11.611076 7.221769 -0.825006 3.061952 -4.775734 4.544169 10.795198 0.000000 0.000000 0.000000 17.003874 1.430059 -8.046279 -1.298802 0.238552 0.406174 3.956344 9.446565 2.508718 0.000000 0.000000 0.000000 -12.278395 2.597829 -8.122347 -37.542822 12.651463 17.077695 -0.538002 6.763013 -25.815596 0.000000 0.000000 0.000000 -10.643384 6.310746 35.224282 0.000000 0.000000 0.000000 37.357603 -4.659272 6.862563 -6.564479 0.368699 -0.598083 19.872679 8.118404 -11.979238 0.000000 0.000000 0.000000 -83.834155 17.213272 -6.774404 -53.834780 -15.162025 -40.335527 -44.606688 -21.552720 -13.776680 
0.018762 0.941355 -0.015774 -14.775370 5.747617 6.342048 0.000000 0.000000 0.000000 23.548638 -2.784314 -12.166488 7.328294 -0.828317 3.009071 -5.114750 4.064297 10.937074 0.000000 0.000000 0.000000 16.408423 1.470831 -8.195490 -1.527945 0.298689 0.706029 3.594529 8.548744 2.348042 0.000000 0.000000 0.000000 -11.744231 2.520120 -7.662667 -37.478094 12.421686 16.818762 -0.067374 7.380241 -25.356118 0.000000 0.000000 0.000000 -10.391040 5.918164 36.118940 0.000000 0.000000 0.000000 37.356880 -4.073522 7.721469 -7.517002 0.203216 -2.131421 19.321652 7.851411 -12.227704 0.000000 0.000000 0.000000 -83.740067 17.129799 -7.244484 -49.850568 -13.698960 -40.794656 -44.266679 -21.710642 -16.643188 
0.022645 0.941969 -0.014428 -14.077487 6.600131 6.289174 0.000000 0.000000 0.000000 22.528598 -2.851029 -12.567475 7.265284 -0.806884 2.882739 -5.344022 3.688262 10.960172 0.000000 0.000000 0.000000 15.638626 1.453912 -8.146298 -1.842946 0.365821 0.883909 3.210439 7.751035 2.069985 0.000000 0.000000 0.000000 -11.173259 2.428952 -7.392789 -37.165188 12.194263 16.763949 0.495299 8.135056 -24.979460 0.000000 0.000000 0.000000 -10.356755 5.658048 36.523377 0.000000 0.000000 0.000000 36.830972 -3.016493 8.901805 -8.008897 0.006094 -3.588087 19.245527 7.818903 -12.941050 0.000000 0.000000 0.000000 -82.376825 17.106465 -8.295469 -45.034039 -11.694403 -40.445326 -42.146027 -21.212444 -22.915142 
0.027582 0.942166 -0.012650 -13.383132 7.291001 6.405979 0.000000 0.000000 0.000000 21.545772 -2.912948 -12.997824 7.021954 -0.770084 2.784559 -5.431083 3.600427 10.966722 0.000000 0.000000 0.000000 14.755536 1.452544 -8.146664 -2.092520 0.415782 0.971233 2.900950 7.172624 1.794406 0.000000 0.000000 0.000000 -10.900921 2.383601 -7.401980 -36.316910 11.775110 16.573548 1.387433 9.026980 -24.675472 0.000000 0.000000 0.000000 -10.712333 5.752697 37.004998 0.000000 0.000000 0.000000 36.484791 -1.665659 10.428768 -8.896316 -0.135031 -4.739623 19.906325 8.193591 -14.611716 0.000000 0.000000 0.000000 -80.722402 17.067632 -9.284117 -39.351922 -9.115509 -38.385441 -38.589462 -19.533566 -31.094345 
0.034068 0.942973 -0.011109 -12.673424 7.961125 6.734321 0.000000 0.000000 0.000000 20.351624 -2.991840 -13.613968 6.995838 -0.758971 2.718642 -5.644534 3.325013 11.053995 0.000000 0.000000 0.000000 13.729941 1.481360 -8.257678 -2.336683 0.446198 0.808762 2.771236 6.482357 1.987592 0.000000 0.000000 0.000000 -10.018649 2.257143 -7.755216 -35.639276 11.422195 16.385103 1.858360 9.607847 -24.183904 0.000000 0.000000 0.000000 -11.100570 5.897096 36.740801 0.000000 0.000000 0.000000 36.491060 -0.524336 11.830724 -9.116104 -0.253904 -5.596265 21.574806 9.181423 -16.817576 0.000000 0.000000 0.000000 -78.577719 16.727540 -9.551653 -32.631629 -6.297459 -35.406180 -34.800101 -16.933936 -38.986446 
0.041486 0.944026 -0.009659 -11.873752 8.562322 7.087382 0.000000 0.000000 0.000000 18.960298 -3.066713 -14.087727 7.027602 -0.742107 2.521913 -5.829323 3.062094 11.105161 0.000000 0.000000 0.000000 12.579318 1.505649 -8.353050 -2.643540 0.487127 0.652462 2.626097 5.725032 2.199822 0.000000 0.000000 0.000000 -9.260894 2.154783 -8.242232 -34.637128 11.016737 16.271612 2.434264 10.147534 -23.650835 0.000000 0.000000 0.000000 -11.519729 6.082363 36.234948 0.000000 0.000000 0.000000 36.480917 0.455958 13.035100 -8.529537 -0.382007 -6.400907 23.553743 10.441461 -19.037907 0.000000 0.000000 0.000000 -75.554831 16.360797 -9.873558 -25.498026 -3.585984 -30.605182 -30.591206 -12.975298 -47.183109 
0.050093 0.944701 -0.008083 -11.187903 9.074138 7.500640 0.000000 0.000000 0.000000 17.686878 -3.149538 -14.616487 6.876630 -0.717810 2.442757 -5.796886 3.082735 11.010361 0.000000 0.000000 0.000000 11.429348 1.546594 -8.519018 -2.830967 0.514184 0.582874 2.374185 4.887663 2.227262 0.000000 0.000000 0.000000 -8.334707 2.042378 -8.991899 -33.104622 10.564616 16.420143 3.361445 10.641178 -23.265533 0.000000 0.000000 0.000000 -12.218930 6.555042 35.704627 0.000000 0.000000 0.000000 36.287224 1.425599 14.084967 -7.567129 -0.515140 -7.197512 25.584973 11.836918 -21.343249 0.000000 0.000000 0.000000 -70.800215 16.065717 -10.402722 -19.820224 -1.823210 -24.096845 -25.809957 -6.928266 -54.988900 
